<?xml version="1.0" encoding="iso-8859-1"?>
<!-- Generator: Adobe Illustrator 19.0.0, SVG Export Plug-In . SVG Version: 6.00 Build 0)  -->
<svg version="1.1" id="Layer_1" xmlns="http://www.w3.org/2000/svg" xmlns:xlink="http://www.w3.org/1999/xlink" x="0px" y="0px"
	 viewBox="0 0 512 512" style="enable-background:new 0 0 512 512;" xml:space="preserve">
<path style="fill:#74C1F2;" d="M456.938,300.863c0,110.974-89.963,200.938-200.938,200.938S55.062,411.838,55.062,300.863H456.938z"
	/>
<path d="M456.938,290.664H112.415l-40.762-76.73c-2.642-4.974-8.818-6.863-13.791-4.222c-4.974,2.643-6.864,8.817-4.222,13.791
	l35.679,67.161H55.062c-5.632,0-10.199,4.566-10.199,10.199C44.863,417.284,139.579,512,256,512s211.137-94.716,211.137-211.137
	C467.137,295.23,462.57,290.664,456.938,290.664z M256,491.602c-101.752,0-185.15-80.088-190.469-180.539h380.938
	c-0.382,7.216-1.18,14.322-2.346,21.305H321.716c-5.632,0-10.199,4.566-10.199,10.199s4.567,10.199,10.199,10.199h117.84
	C416.893,432.796,343.188,491.602,256,491.602z"/>
<path d="M278.116,72.212c19.462,0,35.295,15.833,35.295,35.295c0,19.463-15.833,35.296-35.295,35.296
	c-30.71,0-55.694,24.985-55.694,55.694c0,30.71,24.984,55.695,55.694,55.695c5.632,0,10.199-4.566,10.199-10.199
	s-4.567-10.199-10.199-10.199c-19.462,0-35.295-15.833-35.295-35.296c0-19.462,15.833-35.295,35.295-35.295
	c30.71,0,55.694-24.985,55.694-55.695s-24.984-55.694-55.694-55.694c-5.632,0-10.199,4.566-10.199,10.199
	S272.483,72.212,278.116,72.212z"/>
<path d="M236.411,111.389c5.632,0,10.199-4.566,10.199-10.199c0-5.633-4.567-10.199-10.199-10.199
	c-19.462,0-35.295-15.833-35.295-35.296c0-19.462,15.833-35.295,35.295-35.295c5.632,0,10.199-4.566,10.199-10.199
	S242.043,0,236.411,0c-30.71,0-55.694,24.985-55.694,55.694C180.718,86.405,205.702,111.389,236.411,111.389z"/>
<path d="M278.748,332.368h-10.11c-5.632,0-10.199,4.566-10.199,10.199s4.567,10.199,10.199,10.199h10.11
	c5.632,0,10.199-4.566,10.199-10.199S284.38,332.368,278.748,332.368z"/>
<g>
</g>
<g>
</g>
<g>
</g>
<g>
</g>
<g>
</g>
<g>
</g>
<g>
</g>
<g>
</g>
<g>
</g>
<g>
</g>
<g>
</g>
<g>
</g>
<g>
</g>
<g>
</g>
<g>
</g>
</svg>
